<svg width="12" height="12" viewBox="0 0 12 12" fill="none" xmlns="http://www.w3.org/2000/svg">
<path d="M6.38624 0.76425C6.25771 0.754761 6.12887 0.750008 5.99999 0.75V2.11094e-07C6.1474 7.20818e-05 6.29475 0.00557582 6.44174 0.0165002L6.38624 0.76425ZM7.88924 1.10175C7.64883 1.00898 7.40191 0.934026 7.15049 0.8775L7.31474 0.1455C7.60199 0.21 7.88474 0.2955 8.15924 0.402L7.88924 1.10175ZM8.91674 1.63425C8.80951 1.56274 8.69969 1.49519 8.58749 1.43175L8.95724 0.77925C9.21367 0.924552 9.45908 1.08849 9.69149 1.26975L9.23024 1.8615C9.12856 1.78217 9.02399 1.70662 8.91674 1.635V1.63425ZM10.2922 2.97675C10.1439 2.76598 9.9802 2.56644 9.80249 2.37975L10.3455 1.86225C10.548 2.076 10.7355 2.30475 10.9057 2.54475L10.2922 2.97675ZM10.8502 3.99075C10.801 3.87184 10.7475 3.75477 10.6897 3.63975L11.3595 3.30225C11.4919 3.56556 11.6047 3.83831 11.697 4.11825L10.9845 4.353C10.9442 4.23065 10.8994 4.10982 10.8502 3.99075ZM11.2477 5.871C11.2417 5.61326 11.2166 5.35631 11.1727 5.10225L11.9115 4.97475C11.9617 5.26425 11.991 5.55825 11.9985 5.85225L11.2485 5.871H11.2477ZM11.1495 7.0245C11.1742 6.897 11.1945 6.77025 11.2102 6.642L11.955 6.73425C11.919 7.02687 11.8613 7.31641 11.7825 7.6005L11.0595 7.40025C11.094 7.2765 11.124 7.15125 11.1495 7.0245ZM10.4355 8.80875C10.5735 8.59125 10.695 8.36325 10.8 8.12775L11.4855 8.4315C11.3655 8.7015 11.2267 8.961 11.0692 9.21L10.4355 8.80875ZM9.71249 9.7125C9.80399 9.621 9.89174 9.5265 9.97499 9.429L10.5435 9.91875C10.4472 10.0304 10.3469 10.1384 10.2427 10.2428L9.71249 9.7125Z" fill="#687182"/>
<path d="M5.99999 0.75C5.13665 0.750062 4.28665 0.963035 3.52528 1.37005C2.7639 1.77707 2.11465 2.36558 1.63504 3.08344C1.15542 3.8013 0.860239 4.62636 0.775639 5.48555C0.691039 6.34473 0.819631 7.21152 1.15003 8.00914C1.48042 8.80676 2.00242 9.51059 2.66979 10.0583C3.33716 10.606 4.1293 10.9807 4.97604 11.1491C5.82279 11.3175 6.69801 11.2746 7.52419 11.024C8.35036 10.7734 9.10199 10.3229 9.71249 9.7125L10.2427 10.2428C9.54504 10.9408 8.68593 11.456 7.74152 11.7427C6.79712 12.0294 5.79657 12.0788 4.82854 11.8864C3.86051 11.6939 2.95489 11.2657 2.1919 10.6397C1.42892 10.0136 0.832144 9.209 0.454444 8.29717C0.0767432 7.38533 -0.0702173 6.39441 0.0265836 5.4122C0.123384 4.42999 0.460958 3.48683 1.00939 2.66626C1.55783 1.8457 2.30019 1.17308 3.17071 0.708002C4.04123 0.242921 5.01303 -0.000261549 5.99999 2.11094e-07V0.75Z" fill="#687182"/>
<path d="M5.62499 2.25C5.72445 2.25 5.81983 2.28951 5.89016 2.35984C5.96048 2.43016 5.99999 2.52554 5.99999 2.625V6.5325L8.43599 7.9245C8.51984 7.97508 8.58057 8.05645 8.60522 8.15122C8.62986 8.24598 8.61646 8.34663 8.56788 8.43165C8.5193 8.51667 8.43939 8.57931 8.34523 8.60619C8.25107 8.63307 8.15014 8.62206 8.06399 8.5755L5.43899 7.0755C5.3816 7.04272 5.33389 6.99534 5.3007 6.93818C5.26751 6.88102 5.25001 6.8161 5.24999 6.75V2.625C5.24999 2.52554 5.2895 2.43016 5.35983 2.35984C5.43015 2.28951 5.52554 2.25 5.62499 2.25Z" fill="#687182"/>
</svg>
